<svg width="616" height="616" viewBox="0 0 616 616" fill="none" xmlns="http://www.w3.org/2000/svg">
<path d="M480.667 438.06L589.358 329.369C593.033 325.693 593.033 319.721 589.358 316.045L572.331 299.019C568.655 295.343 562.684 295.343 559.008 299.019L450.317 407.71C446.641 411.386 446.641 417.357 450.317 421.033L467.343 438.06C471.019 441.749 476.977 441.749 480.667 438.06Z" fill="#1A202B" stroke="#1A202B" stroke-width="16" stroke-miterlimit="10"/>
<path d="M407.027 451L299.702 558.325C296.026 562.001 296.026 567.972 299.702 571.648L316.729 588.675C320.404 592.351 326.376 592.351 330.052 588.675L437.376 481.35C441.052 477.674 441.052 471.703 437.376 468.027L420.35 451C416.674 447.311 410.716 447.311 407.027 451Z" fill="#1A202B" stroke="#1A202B" stroke-width="16" stroke-miterlimit="10"/>
<path d="M242.05 484.712L56.4117 299.06C52.7085 295.357 46.7096 295.357 43.0064 299.06L26.0618 316.004C22.3586 319.708 22.3586 325.706 26.0618 329.41L228.645 531.992C234.616 537.964 244.824 533.728 244.824 525.297V491.408C244.824 488.893 243.826 486.488 242.05 484.712Z" fill="#1A202B" stroke="#1A202B" stroke-width="16" stroke-miterlimit="10"/>
<path d="M287.185 552.736V586.625C287.185 589.139 288.183 591.544 289.959 593.321L300.973 604.335C304.676 608.038 310.675 608.038 314.378 604.335L331.323 587.39C335.026 583.687 335.026 577.688 331.323 573.985L303.364 546.026C297.393 540.055 287.185 544.291 287.185 552.736Z" fill="#1A202B" stroke="#1A202B" stroke-width="16" stroke-miterlimit="10"/>
<path d="M329.546 30.1475V37.8271C329.546 40.3688 328.535 42.8012 326.745 44.5913L303.515 67.8217C297.488 73.8479 287.185 69.5845 287.185 61.0575V28.207C287.185 25.6653 288.196 23.233 289.986 21.4429L300.631 10.7979C304.362 7.06737 310.415 7.06737 314.16 10.7979L326.745 23.3833C328.535 25.1734 329.546 27.6058 329.546 30.1475Z" fill="#1A202B" stroke="#1A202B" stroke-width="16" stroke-miterlimit="10"/>
<path d="M228.494 82.9352L10.7979 300.631C7.06737 304.362 7.06737 310.415 10.7979 314.16L27.2231 330.585C30.9537 334.315 37.0072 334.315 40.7514 330.585L242.022 129.314C243.812 127.524 244.824 125.092 244.824 122.55V89.6994C244.824 81.1725 234.52 76.909 228.494 82.9352Z" fill="#1A202B" stroke="#1A202B" stroke-width="16" stroke-miterlimit="10"/>
<path d="M371.907 86.105V125.569C371.907 127.482 372.673 129.327 374.025 130.68L575.925 332.58C578.754 335.408 583.331 335.408 586.146 332.58L605.878 312.847C608.707 310.019 608.707 305.441 605.878 302.626L384.247 80.9943C379.696 76.4439 371.907 79.6688 371.907 86.105Z" fill="#1A202B" stroke="#1A202B" stroke-width="16" stroke-miterlimit="10"/>
<path d="M371.908 318.833V295.179C371.908 290.013 376.089 285.832 381.255 285.832H570.255C575.42 285.832 579.601 290.013 579.601 295.179V318.833C579.601 323.998 575.42 328.18 570.255 328.18H381.255C376.089 328.18 371.908 323.998 371.908 318.833Z" fill="#1A202B" stroke="#1A202B" stroke-width="16" stroke-miterlimit="10"/>
<path d="M322.632 580.981H294.1C290.273 580.981 287.185 577.879 287.185 574.067V41.2983C287.185 37.4721 290.287 34.3838 294.1 34.3838H322.632C326.458 34.3838 329.546 37.4857 329.546 41.2983V574.067C329.546 577.879 326.444 580.981 322.632 580.981Z" fill="#1A202B" stroke="#1A202B" stroke-width="16" stroke-miterlimit="10"/>
</svg>
