<svg width="43" height="43" viewBox="0 0 43 43" fill="none" xmlns="http://www.w3.org/2000/svg">
<g clip-path="url(#clip0_50_28)">
<path d="M25.318 0.0839844C25.008 0.0839844 24.7196 0.150276 24.4526 0.239859C25.0188 0.616109 25.3305 1.11778 25.4846 1.68394C25.4972 1.76098 25.5187 1.81653 25.5294 1.89357C25.5427 1.9597 25.5505 2.02682 25.5527 2.09423C25.5957 3.07069 25.2965 3.19432 25.0869 3.77124C24.7644 4.51478 24.8539 5.31386 25.2409 5.95707C25.2764 6.04332 25.3208 6.1256 25.3735 6.20253C24.9525 3.39319 27.296 2.97215 27.7278 2.09423C27.7618 1.3274 27.1294 0.816776 26.6295 0.462026C26.2367 0.215186 25.7819 0.0847292 25.318 0.085776V0.0839844ZM28.8494 0.716443C28.8064 0.972651 28.8386 0.90636 28.8279 1.03894C28.8171 1.12853 28.8171 1.23961 28.8064 1.3274C28.7831 1.41698 28.7616 1.50657 28.7275 1.59436C28.706 1.68394 28.6738 1.77353 28.6379 1.86132L28.5179 2.11573C28.4821 2.16053 28.4624 2.20532 28.4283 2.25011L28.362 2.34865C28.3092 2.42468 28.2536 2.49879 28.1954 2.57082C28.1291 2.6389 28.0736 2.71594 27.9947 2.77148V2.78223C27.9284 2.83778 27.8622 2.90407 27.7833 2.9614C27.5504 3.13878 27.2852 3.27136 27.0398 3.43798C26.9627 3.49173 26.8839 3.53832 26.8176 3.60461C26.7422 3.65763 26.6715 3.71697 26.6062 3.78199C26.5292 3.84828 26.4736 3.91457 26.4073 3.9934C26.3518 4.05969 26.2855 4.13674 26.2407 4.21557C26.1849 4.29059 26.1329 4.36832 26.0848 4.44849C26.04 4.53807 26.0078 4.61511 25.963 4.7029C25.9289 4.79249 25.8967 4.86953 25.8734 4.95911C25.844 5.05061 25.8183 5.14326 25.7964 5.23682C25.7856 5.28161 25.7856 5.33715 25.7749 5.38015C25.7623 5.42494 25.7623 5.46974 25.7516 5.51453C25.7516 5.60411 25.7408 5.70265 25.7408 5.79224C25.7408 5.85853 25.7408 5.92482 25.7516 5.99111C25.7516 6.08069 25.7623 6.17028 25.7856 6.26882C25.7964 6.3584 25.8179 6.44799 25.8394 6.53757C25.8752 6.62536 25.8967 6.71315 25.9289 6.80274C25.9522 6.85649 25.9845 6.91382 26.0078 6.95861L23.4529 5.96961C23.0211 5.84778 22.5982 5.73669 22.1647 5.63636L21.4659 5.46974C20.7994 5.33715 20.1222 5.23682 19.4449 5.17053C19.4216 5.17053 19.4109 5.15978 19.3894 5.15978C18.245 5.04514 17.0928 5.03015 15.9458 5.11499C15.2685 5.15978 14.5913 5.24757 13.914 5.35865C13.4107 5.44537 12.9106 5.54935 12.4144 5.6704L11.9145 5.80299C11.7497 5.86928 11.592 5.94632 11.4379 6.0144L11.0707 6.18103C11.0492 6.19178 11.0277 6.19178 11.0169 6.20253C10.904 6.25807 10.8055 6.30286 10.7052 6.3584C10.5609 6.42204 10.4198 6.49259 10.2823 6.56982C10.2053 6.60207 10.1282 6.64686 10.0602 6.6809C10.0283 6.70065 9.99544 6.71859 9.96161 6.73465C9.86128 6.79199 9.76094 6.84753 9.67136 6.90307C9.57993 6.95361 9.4914 7.00924 9.40619 7.06969C9.32736 7.12344 9.25032 7.16824 9.18403 7.22378C9.17328 7.23632 9.16074 7.23632 9.14999 7.24707C9.08369 7.29186 9.00665 7.3474 8.93857 7.40294L8.91707 7.42444L8.75044 7.55703C8.72894 7.56957 8.70565 7.59107 8.68415 7.60182C8.62861 7.64661 8.57307 7.70215 8.51753 7.74515C8.50678 7.76844 8.48349 7.78099 8.47274 7.78994C8.40645 7.85803 8.34015 7.91357 8.27386 7.97986C8.26132 7.97986 8.26132 7.99061 8.25057 8.00136C8.18152 8.06171 8.11516 8.12508 8.05169 8.19128C8.03915 8.20203 8.03915 8.21278 8.0284 8.21278C7.97009 8.26986 7.91448 8.32965 7.86178 8.39194C7.84028 8.41344 7.80803 8.43494 7.78474 8.45644C7.72524 8.52684 7.66183 8.59383 7.59482 8.65711C7.58407 8.67861 7.56257 8.69115 7.55182 8.71086C7.46224 8.80044 7.38519 8.89003 7.29561 8.97961L7.26336 9.01186C7.08419 9.20178 6.89607 9.3899 6.6954 9.55653C6.49653 9.73569 6.28511 9.90053 6.0737 10.0457C5.64921 10.3489 5.19108 10.602 4.70845 10.7999C4.47553 10.9003 4.23007 10.9899 3.9864 11.0669C3.52057 11.1672 3.0422 11.3554 2.6319 11.3894C2.54232 11.3894 2.44378 11.4109 2.3542 11.4217L2.07649 11.4879L1.80953 11.5883C1.71995 11.6223 1.63215 11.6671 1.54436 11.7101C1.46553 11.7657 1.37774 11.8104 1.2989 11.866C1.21985 11.9232 1.14556 11.9867 1.07674 12.0559C0.999695 12.1097 0.920862 12.1885 0.85457 12.2548C0.788278 12.3318 0.721987 12.3981 0.666445 12.4769C0.610903 12.5665 0.544612 12.6436 0.49982 12.7332C0.441461 12.8139 0.389352 12.8989 0.343945 12.9876C0.299153 13.0879 0.254362 13.1775 0.222112 13.276C0.18807 13.3656 0.15582 13.4659 0.121778 13.5645C0.100278 13.6541 0.0769866 13.7437 0.0680283 13.8332C0.0680283 13.8422 0.0554866 13.8547 0.0554866 13.8655C0.0339866 13.9658 0.0339866 14.0984 0.0214449 14.1647C0.0106949 14.2435 -5.50723e-05 14.308 -5.50723e-05 14.3869C-0.00211642 14.5801 0.0434177 14.7708 0.132528 14.9423V14.953C0.16657 15.0193 0.211362 15.0874 0.256153 15.1537C0.299153 15.22 0.345737 15.2863 0.399487 15.3526C0.455028 15.4081 0.52132 15.4762 0.589403 15.5317C0.654143 15.5967 0.724269 15.656 0.799028 15.7091C1.06599 15.942 1.13228 16.0191 1.47628 16.1964C1.53182 16.2305 1.58736 16.252 1.65545 16.286C1.6662 16.286 1.67694 16.2968 1.68769 16.2968C1.68769 16.3201 1.68769 16.3308 1.69844 16.3523C1.72438 16.5354 1.77251 16.7147 1.84178 16.8862C1.87761 16.9525 1.89911 17.0188 1.93136 17.0851C1.9439 17.1084 1.95465 17.1299 1.9672 17.1407C2.0102 17.2302 2.05499 17.3073 2.09799 17.3861L2.26461 17.619C2.32015 17.6853 2.38824 17.7624 2.45453 17.8304C2.52082 17.8967 2.58711 17.9523 2.66595 18.0186C2.66595 18.0186 2.6767 18.0293 2.68745 18.0293C2.75374 18.0849 2.82003 18.1404 2.88811 18.1852C2.96537 18.2394 3.04686 18.2873 3.13178 18.3285C3.20882 18.3733 3.2984 18.4181 3.3862 18.4522C3.45779 18.4845 3.53214 18.5102 3.60836 18.5292C3.6209 18.5399 3.63165 18.5399 3.65315 18.5507C3.69795 18.5632 3.75349 18.574 3.79649 18.5847C3.76424 19.1849 3.75349 19.7493 3.84307 19.95C3.94161 20.1722 4.43074 19.4949 4.91807 18.7173C4.85357 19.4842 4.80878 20.3836 4.91807 20.6505C5.0417 20.9282 5.7064 20.0611 6.28511 19.1061C14.1595 17.2858 21.3441 22.7253 22.0984 30.4115C21.955 29.2111 20.4769 28.5464 19.7997 28.713C19.4664 29.5336 18.9002 30.5889 17.9901 31.2447C18.0671 30.5101 18.0349 29.7576 17.879 29.023C17.6303 30.0455 17.1599 31.0009 16.5012 31.8216C15.4477 31.8986 14.3924 31.388 13.837 30.6212C13.7922 30.5889 13.7814 30.5226 13.7474 30.4778C13.7152 30.4008 13.6811 30.3219 13.6578 30.2449C13.6256 30.1705 13.6033 30.0922 13.5915 30.012C13.5808 29.9332 13.5808 29.8561 13.5808 29.7665V29.5999C13.594 29.5211 13.6126 29.4433 13.6363 29.367C13.6596 29.2899 13.6811 29.2129 13.7152 29.1341C13.7582 29.057 13.7922 28.9782 13.8477 28.9012C14.0359 28.3672 14.0359 27.9337 13.6919 27.6792C13.6251 27.6356 13.5543 27.5984 13.4804 27.5682C13.4374 27.5574 13.3819 27.5359 13.3371 27.5234L13.2475 27.4911C13.1715 27.4665 13.0936 27.4479 13.0146 27.4356C12.9389 27.4134 12.8605 27.402 12.7817 27.4015C12.7011 27.3889 12.6196 27.3817 12.538 27.38C12.4825 27.38 12.4269 27.3908 12.3714 27.3908C12.2884 27.3903 12.2057 27.4018 12.1259 27.4248C12.0489 27.4356 11.9719 27.4463 11.893 27.4678C11.8138 27.4891 11.736 27.5154 11.6601 27.5467C11.5831 27.5789 11.5168 27.6129 11.4379 27.647C11.3717 27.6792 11.3054 27.724 11.2265 27.7581C8.63936 29.4458 10.1838 33.3982 11.9486 34.5431C11.2821 34.6649 10.6048 34.8083 10.4167 34.9534L10.3934 34.9749C10.8718 35.2634 11.3717 35.5088 11.893 35.7202C12.6043 35.9532 13.3586 36.1628 13.6919 36.2524V36.2631C14.6119 36.4521 15.5528 36.5195 16.4904 36.4638C21.4104 36.1198 25.4416 32.377 26.1744 27.4463L26.2407 27.7348C26.2747 27.9354 26.3177 28.1469 26.341 28.3565V28.3672C26.3625 28.4676 26.3733 28.5679 26.3858 28.6575V28.7005C26.3966 28.8008 26.4073 28.9012 26.4073 28.9907C26.4181 29.1126 26.4288 29.2344 26.4288 29.3562V29.5354C26.4288 29.5892 26.4414 29.6554 26.4414 29.711C26.4414 29.7791 26.4288 29.8454 26.4288 29.9117V30.0675C26.4288 30.1446 26.4181 30.2109 26.4181 30.2897C26.4181 30.3345 26.4181 30.3793 26.4073 30.433C26.4073 30.5119 26.3966 30.5889 26.3966 30.6785C26.3858 30.7107 26.3858 30.7448 26.3858 30.777L26.35 31.0332C26.35 31.0673 26.35 31.0995 26.341 31.1336C26.3285 31.2447 26.307 31.345 26.2962 31.4561V31.4776L26.2299 31.7893V31.8216L26.1637 32.1208C26.1637 32.1333 26.1511 32.1566 26.1511 32.1656C26.1307 32.2672 26.105 32.3676 26.0741 32.4666V32.4988C26.04 32.6099 26.0078 32.7102 25.9845 32.8106C25.9737 32.8213 25.9737 32.8321 25.9737 32.8321L25.8734 33.1653C25.8304 33.2764 25.7964 33.3767 25.7516 33.4878C25.7068 33.5989 25.6745 33.71 25.6297 33.8103C25.5849 33.9214 25.5402 34.0199 25.4972 34.1328H25.4846C25.4416 34.2314 25.395 34.3424 25.3413 34.4428C25.332 34.4693 25.3206 34.4951 25.3072 34.5198C25.2965 34.5306 25.2965 34.5431 25.2857 34.5539C24.5513 36.0242 23.4823 37.3018 22.1647 38.2841C22.0751 38.3397 21.9873 38.4077 21.8977 38.474C21.8762 38.4955 21.8439 38.5063 21.8207 38.5278C21.7412 38.5865 21.66 38.6427 21.577 38.6962L21.6092 38.7625H21.6218L22.0876 38.6962H22.0984C22.3868 38.6514 22.6753 38.5959 22.9637 38.5403C23.0426 38.5296 23.1304 38.5063 23.2092 38.4848L23.3651 38.4507C23.4421 38.44 23.5192 38.4185 23.598 38.4077C23.6643 38.3844 23.7306 38.3719 23.7969 38.3522C24.9077 38.0834 25.9845 37.7179 27.0183 37.2862C25.2335 39.7172 22.8598 41.6543 20.1204 42.9156C21.3996 42.826 22.6753 42.6164 23.9079 42.2598C28.3696 40.9481 32.1378 37.937 34.4017 33.8748C33.9445 36.4463 32.9246 38.885 31.415 41.0164C32.4913 40.3065 33.4858 39.4797 34.3802 38.5511C36.8659 35.956 38.4978 32.6623 39.0565 29.1126C39.4327 30.8684 39.5438 32.678 39.379 34.4643C47.3949 23.2825 40.0437 11.6886 36.9674 8.63561C36.9567 8.61232 36.9459 8.60157 36.9459 8.58007C36.9352 8.59082 36.9352 8.59082 36.9352 8.60157C36.9352 8.59082 36.9352 8.59082 36.9226 8.58007C36.9226 8.71265 36.9119 8.84524 36.9011 8.97961C36.8703 9.22835 36.8333 9.47628 36.79 9.72315C36.7363 9.96682 36.6682 10.2123 36.6019 10.4577C36.5231 10.6907 36.4353 10.9343 36.3332 11.1672C36.2316 11.3973 36.1211 11.6232 36.0017 11.8445C35.7538 12.2798 35.4678 12.6923 35.1471 13.0772C34.9804 13.276 34.8031 13.4534 34.6239 13.6326C34.5192 13.7283 34.4116 13.8209 34.3014 13.9103L34.047 14.1324C33.8487 14.2889 33.6411 14.4331 33.4253 14.5642C33.213 14.7009 32.9942 14.8271 32.7695 14.9423C32.5366 15.0534 32.3037 15.1537 32.0708 15.254C31.5964 15.4345 31.1055 15.5683 30.6052 15.6536C30.349 15.6984 30.0946 15.7199 29.8491 15.7432C29.672 15.7557 29.4945 15.7629 29.317 15.7647C29.0644 15.7612 28.8121 15.7462 28.5609 15.7199C28.3072 15.7 28.0552 15.6628 27.8066 15.6088C27.5548 15.5631 27.3063 15.5002 27.0631 15.4207H27.0505C27.296 15.3974 27.5397 15.3759 27.7851 15.3311C28.2851 15.2444 28.7759 15.1106 29.2507 14.9315C29.4944 14.8419 29.7273 14.7309 29.9494 14.6198C30.1824 14.5087 30.3938 14.3869 30.6159 14.2543C30.8274 14.1109 31.037 13.9658 31.2377 13.8099C31.4383 13.6541 31.6264 13.4874 31.8038 13.3101C31.9919 13.1434 32.1586 12.9553 32.3252 12.7654C32.4918 12.5665 32.6477 12.3659 32.791 12.167C32.8143 12.1329 32.8376 12.0882 32.8591 12.0559C32.9702 11.8767 33.0813 11.6994 33.1816 11.522C33.4264 11.08 33.6269 10.6149 33.78 10.1334C33.8589 9.90053 33.9144 9.65686 33.9699 9.4114C34.0147 9.15699 34.0595 8.91332 34.081 8.66786C34.1025 8.41344 34.1258 8.15724 34.1258 7.91357C34.1258 7.7344 34.1133 7.55703 34.1025 7.37965C34.0804 7.13094 34.0505 6.88297 34.0129 6.63611C33.9698 6.3858 33.9148 6.13768 33.8481 5.89257C33.7693 5.65965 33.6922 5.41419 33.6027 5.18128C33.5131 4.94836 33.4038 4.71544 33.2927 4.49328C33.1691 4.27111 33.0472 4.04894 32.9147 3.83753C32.7728 3.62996 32.6246 3.42681 32.4703 3.22836C32.3037 3.03844 32.1371 2.84853 31.9597 2.6604C31.8662 2.56508 31.77 2.47247 31.6712 2.38269C31.1696 1.9939 30.65 1.6284 30.1268 1.29515C30.0551 1.2537 29.9809 1.21661 29.9047 1.18407C29.5753 0.982386 29.2203 0.825716 28.8494 0.718234V0.716443Z" fill="#D4AF47"/>
</g>
<defs>
<clipPath id="clip0_50_28">
<rect width="43" height="43" fill="white"/>
</clipPath>
</defs>
</svg>
