<svg width="111" height="39" viewBox="0 0 111 39" fill="none" xmlns="http://www.w3.org/2000/svg">
<path fill-rule="evenodd" clip-rule="evenodd" d="M95.8015 33.9262V38.9475H104.872C106.73 38.9475 109.92 37.5881 110.031 33.7875V31.8455C110.031 28.5997 107.368 26.6855 104.872 26.6855H100.35V24.3552H109.31V19.3062H100.711C98.492 19.3062 95.5241 21.1372 95.5241 24.5494V26.2972C95.5241 29.7094 98.4643 31.4572 100.711 31.4572C106.952 31.4849 99.2132 31.4572 104.983 31.4572V33.8984L95.8015 33.9262ZM47.2059 32.7055C47.2059 32.7055 52.0599 32.2894 52.0599 26.0197C52.0599 19.7501 46.1796 19.1675 46.1796 19.1675H35.584V38.9475H40.9095V34.1759L45.5139 38.9475H53.3913L47.2059 32.7055ZM45.1533 28.6552H40.9095V24.1333H45.1811C45.1811 24.1333 46.3738 24.5772 46.3738 26.3804C46.3738 28.1836 45.1533 28.6552 45.1533 28.6552ZM65.2073 19.3062H59.7986C55.9431 19.3062 54.6395 22.8017 54.6395 24.4662V38.9475H60.0482V35.4797H65.1241V38.9475H70.3665V24.4662C70.3665 20.2494 66.5387 19.3062 65.2073 19.3062ZM65.1241 29.8759H60.0205V25.0765C60.0205 25.0765 60.0205 23.9946 61.7125 23.9946H63.5708C65.0687 23.9946 65.0964 25.0765 65.0964 25.0765V29.8759H65.1241Z" fill="#D4AF47"/>
<path d="M78.4658 19.3062H72.8351V38.9474H78.4658V19.3062Z" fill="#D4AF47"/>
<path fill-rule="evenodd" clip-rule="evenodd" d="M86.3709 33.8707V19.3062H80.7679V33.8707V38.9474H86.3709H93.9431V33.8707H86.3709Z" fill="#D4AF47"/>
<path fill-rule="evenodd" clip-rule="evenodd" d="M2.16064 38.9475H24.0731C24.0731 38.9475 19.8847 19.8333 33.7533 12.0933C36.7767 10.623 46.4015 5.13009 62.1563 16.7817C62.6555 16.3656 63.1271 16.0327 63.1271 16.0327C63.1271 16.0327 48.7037 1.6346 32.6439 3.24364C24.5723 3.96493 14.6424 11.3165 8.81758 21.0262C2.99276 30.7359 2.16064 38.9475 2.16064 38.9475Z" fill="#D4AF47"/>
<path fill-rule="evenodd" clip-rule="evenodd" d="M2.16064 38.9475H24.0731C24.0731 38.9475 19.8847 19.8333 33.7533 12.0933C36.7767 10.623 46.4015 5.13009 62.1563 16.7817C62.6555 16.3656 63.1271 16.0327 63.1271 16.0327C63.1271 16.0327 48.7037 1.6346 32.6439 3.24364C24.5723 3.96493 14.6424 11.3165 8.81758 21.0262C2.99276 30.7359 2.16064 38.9475 2.16064 38.9475Z" fill="#D4AF47"/>
<path fill-rule="evenodd" clip-rule="evenodd" d="M2.16064 38.9473H24.0731C24.0731 38.9473 19.8847 19.8331 33.7533 12.0931C36.7767 10.6228 46.4015 5.12987 62.1563 16.7815C62.6555 16.3653 63.1271 16.0324 63.1271 16.0324C63.1271 16.0324 48.7037 1.63438 32.6439 3.24341C24.5446 3.9647 14.6147 11.3163 8.78984 21.026C2.96502 30.7357 2.16064 38.9473 2.16064 38.9473ZM47.8161 4.79696L47.9271 2.93825C47.6774 2.79954 46.984 2.46664 45.2366 1.96729L45.1256 3.79825C46.0409 4.10341 46.9285 4.43632 47.8161 4.79696Z" fill="#D4AF47"/>
<path fill-rule="evenodd" clip-rule="evenodd" d="M45.181 10.6783L45.0701 12.426C45.9854 12.4538 46.9007 12.5648 47.8161 12.759L47.927 11.039C46.984 10.8448 46.0686 10.7338 45.181 10.6783ZM34.9183 2.02282H35.1956L34.6409 0.330566C33.781 0.330566 32.8934 0.38605 31.9781 0.497018L32.5051 2.13379C33.3095 2.05057 34.1139 2.02282 34.9183 2.02282ZM36.2497 12.2319L36.8876 14.146C37.692 13.7577 38.4964 13.4248 39.3007 13.1751L38.6905 11.3441C37.7475 11.6215 36.9431 11.9267 36.2497 12.2319ZM23.657 4.93573L22.4088 3.02153C21.7153 3.38218 20.9942 3.77057 20.2453 4.21444L21.5212 6.15637C22.2424 5.7125 22.9358 5.29637 23.657 4.93573ZM29.3431 17.4196L30.6745 19.417C31.146 18.7235 31.7007 18.0854 32.311 17.4473L31.0628 15.5609C30.4248 16.1435 29.8424 16.7815 29.3431 17.4196ZM25.3212 26.3525L27.5679 28.128C27.6788 27.046 27.873 25.9641 28.1504 24.8822L26.1533 23.3009C25.7927 24.3273 25.5431 25.3538 25.3212 26.3525ZM13.1723 13.1751L11.2029 11.4551C10.4818 12.1486 9.78834 12.8422 9.15038 13.5357L11.2861 15.3667C11.8686 14.6177 12.5066 13.8686 13.1723 13.1751ZM4.79564 25.5757L1.60586 24.4106C1.07885 25.6035 0.496366 26.9906 0.218994 27.7396L3.40878 28.9048C3.76936 27.9615 4.35184 26.6022 4.79564 25.5757ZM24.9051 33.3989C24.9606 34.8693 25.0993 36.0622 25.238 36.8944L28.5664 38.0873C28.3168 37.0054 28.0672 35.7848 27.9007 34.4809L24.9051 33.3989Z" fill="#D4AF47"/>
</svg>
